<svg xmlns="http://www.w3.org/2000/svg" xmlns:xlink="http://www.w3.org/1999/xlink" width="1920" zoomAndPan="magnify" viewBox="0 0 1440 809.999993" height="1080" preserveAspectRatio="xMidYMid meet" version="1.0"><defs><clipPath id="5cd8485595"><path d="M 138 720 L 311 720 L 311 810 L 138 810 Z M 138 720 " clip-rule="nonzero"/></clipPath><clipPath id="48129b0257"><path d="M 167.824219 707.261719 L 321.390625 756.433594 L 284.339844 872.148438 L 130.769531 822.972656 Z M 167.824219 707.261719 " clip-rule="nonzero"/></clipPath><clipPath id="010538a8d2"><path d="M 167.824219 707.261719 L 321.390625 756.433594 L 284.339844 872.148438 L 130.769531 822.972656 Z M 167.824219 707.261719 " clip-rule="nonzero"/></clipPath><clipPath id="5d9454ace6"><path d="M 150 726 L 237 726 L 237 810 L 150 810 Z M 150 726 " clip-rule="nonzero"/></clipPath><clipPath id="60be7898c6"><path d="M 167.824219 707.261719 L 321.390625 756.433594 L 284.339844 872.148438 L 130.769531 822.972656 Z M 167.824219 707.261719 " clip-rule="nonzero"/></clipPath><clipPath id="94339cc7aa"><path d="M 167.824219 707.261719 L 321.390625 756.433594 L 284.339844 872.148438 L 130.769531 822.972656 Z M 167.824219 707.261719 " clip-rule="nonzero"/></clipPath><clipPath id="a7586c2abd"><path d="M 193 736 L 298 736 L 298 810 L 193 810 Z M 193 736 " clip-rule="nonzero"/></clipPath><clipPath id="7c1cfd2300"><path d="M 167.824219 707.261719 L 321.390625 756.433594 L 284.339844 872.148438 L 130.769531 822.972656 Z M 167.824219 707.261719 " clip-rule="nonzero"/></clipPath><clipPath id="0cec1d7bb1"><path d="M 167.824219 707.261719 L 321.390625 756.433594 L 284.339844 872.148438 L 130.769531 822.972656 Z M 167.824219 707.261719 " clip-rule="nonzero"/></clipPath><clipPath id="315efc58cf"><path d="M 209 809 L 238 809 L 238 810 L 209 810 Z M 209 809 " clip-rule="nonzero"/></clipPath><clipPath id="6dfb91c9e2"><path d="M 167.824219 707.261719 L 321.390625 756.433594 L 284.339844 872.148438 L 130.769531 822.972656 Z M 167.824219 707.261719 " clip-rule="nonzero"/></clipPath><clipPath id="90fd1f2f33"><path d="M 167.824219 707.261719 L 321.390625 756.433594 L 284.339844 872.148438 L 130.769531 822.972656 Z M 167.824219 707.261719 " clip-rule="nonzero"/></clipPath></defs><rect x="-144" width="1728" fill="#ffffff" y="-80.999999" height="971.999992" fill-opacity="1"/><rect x="-144" width="1728" fill="#fcebdb" y="-80.999999" height="971.999992" fill-opacity="1"/><path fill="#ffcc01" d="M 1154.621094 84.019531 C 1146.132812 91.511719 1138.695312 100.988281 1132.628906 112.808594 C 1093.472656 189.085938 1092.816406 335.148438 1185.304688 374.578125 C 1224.617188 391.335938 1272.410156 398.320312 1314.296875 405.980469 C 1377.074219 417.453125 1428.585938 407.84375 1473.007812 358.445312 C 1508.25 319.261719 1544.667969 267.105469 1546.742188 212.507812 C 1547.867188 182.878906 1536.6875 151.660156 1512.832031 134.054688 C 1493.183594 119.550781 1467.929688 115.804688 1444.09375 110.5 C 1362.757812 92.394531 1230.414062 17.101562 1154.621094 84.019531 " fill-opacity="1" fill-rule="nonzero"/><path fill="#000630" d="M 1440.566406 321.917969 C 1452.65625 329.816406 1459.984375 344.953125 1463.410156 359.800781 C 1466.835938 374.554688 1466.363281 389.023438 1464.078125 403.011719 C 1461.886719 417.101562 1457.984375 430.710938 1450.085938 442.515625 C 1442.183594 454.316406 1430.476562 464.3125 1416.582031 469.546875 C 1402.589844 474.875 1386.597656 475.445312 1372.890625 470.402344 C 1359.28125 465.261719 1347.953125 454.507812 1337.578125 442.703125 C 1327.207031 430.996094 1317.6875 418.335938 1313.976562 403.773438 C 1310.167969 389.210938 1312.070312 372.746094 1318.734375 358.5625 C 1325.398438 344.382812 1336.820312 332.484375 1350.335938 325.25 C 1363.753906 318.015625 1379.363281 315.445312 1395.546875 314.492188 C 1411.726562 313.445312 1428.480469 314.113281 1440.566406 321.917969 Z M 1440.566406 321.917969 " fill-opacity="1" fill-rule="nonzero"/><path fill="#ff5555" d="M 1447.496094 312.269531 C 1461.191406 321.21875 1469.496094 338.367188 1473.378906 355.191406 C 1477.257812 371.90625 1476.71875 388.296875 1474.132812 404.152344 C 1471.652344 420.113281 1467.230469 435.535156 1458.277344 448.90625 C 1449.328125 462.28125 1436.0625 473.601562 1420.316406 479.535156 C 1404.464844 485.574219 1386.347656 486.222656 1370.816406 480.503906 C 1355.394531 474.679688 1342.5625 462.496094 1330.808594 449.121094 C 1319.050781 435.859375 1308.269531 421.515625 1304.0625 405.015625 C 1299.75 388.515625 1301.90625 369.855469 1309.453125 353.789062 C 1317.003906 337.71875 1329.945312 324.238281 1345.257812 316.042969 C 1360.464844 307.847656 1378.152344 304.933594 1396.484375 303.855469 C 1414.816406 302.671875 1433.796875 303.425781 1447.496094 312.269531 Z M 1447.496094 312.269531 " fill-opacity="1" fill-rule="nonzero"/><path fill="#ff5555" d="M 207.269531 619.019531 C 235.414062 654.882812 254.339844 697.472656 249.359375 740.308594 C 244.128906 783.148438 214.742188 825.984375 174.890625 844.167969 C 135.042969 862.097656 84.484375 854.875 35.667969 835.203125 C -12.898438 815.277344 -60.21875 782.402344 -76.15625 735.828125 C -92.347656 689.253906 -77.402344 628.734375 -42.035156 591.125 C -6.671875 553.519531 48.867188 539.074219 95.441406 546.296875 C 141.765625 553.765625 179.125 583.15625 207.269531 619.019531 Z M 207.269531 619.019531 " fill-opacity="1" fill-rule="nonzero"/><g clip-path="url(#5cd8485595)"><g clip-path="url(#48129b0257)"><g clip-path="url(#010538a8d2)"><path fill="#3a5de9" d="M 166.207031 731.9375 C 157.242188 748.066406 149.667969 765.035156 143.824219 782.535156 C 142.542969 786.375 141.253906 790.234375 140.253906 794.164062 C 139.617188 796.664062 139.117188 799.222656 138.855469 801.792969 C 138.59375 804.28125 138.769531 806.832031 139.164062 809.300781 C 139.300781 810.144531 139.507812 810.972656 139.785156 811.777344 C 140.300781 813.300781 140.824219 814.882812 141.636719 816.28125 C 142.847656 818.371094 144.300781 820.390625 146.109375 822 C 147.992188 823.671875 149.859375 825.203125 152.054688 826.433594 C 154.273438 827.671875 156.609375 828.738281 158.945312 829.726562 C 162.808594 831.363281 166.742188 832.828125 170.652344 834.347656 C 174.78125 835.964844 178.910156 837.554688 183.054688 839.121094 C 191.378906 842.273438 199.757812 845.292969 208.21875 848.042969 C 216.714844 850.800781 225.300781 853.28125 233.996094 855.324219 C 238.582031 856.402344 243.191406 857.351562 247.835938 858.113281 C 251.132812 858.660156 254.46875 859.035156 257.816406 859.097656 C 261.851562 859.164062 266.015625 858.867188 269.953125 857.925781 C 272.253906 857.375 274.535156 856.558594 276.707031 855.632812 C 278.929688 854.675781 280.863281 853.351562 282.851562 851.976562 C 284.34375 850.933594 285.703125 849.753906 286.929688 848.410156 C 288.710938 846.460938 290.40625 844.429688 291.820312 842.199219 C 294.261719 838.324219 296.128906 834.035156 297.761719 829.765625 C 300.878906 821.652344 303.539062 813.339844 305.945312 804.992188 C 307.125 800.898438 308.304688 796.785156 309.234375 792.617188 C 309.816406 789.988281 310.34375 787.316406 310.574219 784.632812 C 310.800781 782.011719 310.617188 779.339844 310.222656 776.742188 C 309.46875 771.792969 306.953125 767.214844 303.820312 763.386719 C 302.777344 762.109375 301.609375 760.953125 300.367188 759.871094 C 298.464844 758.199219 296.546875 756.59375 294.472656 755.144531 C 287.027344 749.941406 278.773438 745.832031 270.511719 742.132812 C 254.894531 735.15625 238.328125 730.574219 221.714844 726.613281 C 217.527344 725.617188 213.328125 724.652344 209.121094 723.703125 C 204.660156 722.695312 200.199219 721.664062 195.664062 721.023438 C 191.476562 720.425781 187.09375 720.429688 182.9375 721.328125 C 178.199219 722.347656 173.640625 724.699219 170.109375 728.03125 C 163.636719 734.144531 160.359375 742.621094 157.542969 750.882812 C 154.679688 759.285156 152.324219 767.855469 150.484375 776.535156 C 149.441406 781.464844 148.550781 786.433594 147.792969 791.414062 C 147.691406 792.730469 147.914062 793.976562 148.453125 795.148438 C 148.792969 796.386719 149.410156 797.476562 150.320312 798.414062 C 151.179688 799.449219 152.21875 800.191406 153.457031 800.644531 C 154.617188 801.328125 155.882812 801.671875 157.261719 801.683594 C 159.765625 801.671875 162.417969 800.96875 164.257812 799.164062 C 164.8125 798.511719 165.371094 797.871094 165.925781 797.21875 C 166.90625 795.695312 167.4375 794.035156 167.527344 792.222656 C 167.808594 790.398438 168.105469 788.574219 168.429688 786.753906 C 168.273438 787.617188 168.125 788.496094 167.96875 789.359375 C 170.082031 777.574219 173.136719 765.960938 177.125 754.675781 C 178.039062 752.082031 179.003906 749.5 180.191406 747.011719 C 179.816406 747.804688 179.429688 748.605469 179.054688 749.402344 C 180.273438 746.863281 181.695312 744.4375 183.53125 742.296875 C 182.976562 742.945312 182.417969 743.589844 181.863281 744.238281 C 182.929688 743.019531 184.109375 741.917969 185.433594 740.988281 C 184.738281 741.464844 184.050781 741.941406 183.351562 742.417969 C 184.539062 741.605469 185.800781 740.949219 187.144531 740.449219 C 186.351562 740.738281 185.5625 741.019531 184.769531 741.308594 C 186.390625 740.730469 188.0625 740.386719 189.765625 740.222656 C 188.914062 740.296875 188.066406 740.378906 187.214844 740.453125 C 190.4375 740.171875 193.660156 740.519531 196.832031 741.078125 C 195.964844 740.921875 195.089844 740.773438 194.222656 740.617188 C 198.871094 741.449219 203.480469 742.59375 208.082031 743.644531 C 213.03125 744.78125 217.976562 745.941406 222.898438 747.179688 C 232.761719 749.664062 242.554688 752.464844 252.113281 755.949219 C 257.464844 757.894531 262.738281 760.066406 267.886719 762.511719 C 267.09375 762.136719 266.292969 761.75 265.496094 761.375 C 269.636719 763.339844 273.691406 765.484375 277.628906 767.824219 C 281.054688 769.863281 284.441406 772.007812 287.472656 774.601562 C 286.820312 774.050781 286.179688 773.488281 285.527344 772.933594 C 287.304688 774.480469 288.9375 776.175781 290.285156 778.113281 C 289.808594 777.414062 289.332031 776.726562 288.855469 776.03125 C 289.722656 777.308594 290.441406 778.671875 290.988281 780.125 C 290.699219 779.332031 290.414062 778.542969 290.125 777.75 C 290.640625 779.183594 290.949219 780.675781 291.105469 782.191406 C 291.03125 781.339844 290.949219 780.492188 290.875 779.640625 C 291.085938 782.140625 290.851562 784.648438 290.40625 787.117188 C 290.5625 786.25 290.714844 785.375 290.871094 784.507812 C 290.355469 787.339844 289.597656 790.128906 288.847656 792.902344 C 288.007812 796.011719 287.128906 799.113281 286.207031 802.203125 C 284.359375 808.375 282.339844 814.496094 280.148438 820.558594 C 279.089844 823.492188 277.980469 826.410156 276.644531 829.230469 C 277.023438 828.433594 277.40625 827.632812 277.78125 826.839844 C 276.398438 829.738281 274.765625 832.511719 272.691406 834.976562 C 273.246094 834.324219 273.804688 833.683594 274.359375 833.03125 C 272.96875 834.640625 271.410156 836.085938 269.660156 837.292969 C 270.355469 836.816406 271.042969 836.339844 271.742188 835.863281 C 270.066406 836.992188 268.273438 837.902344 266.375 838.601562 C 267.167969 838.308594 267.957031 838.027344 268.75 837.738281 C 266.199219 838.65625 263.546875 839.179688 260.855469 839.433594 C 261.710938 839.359375 262.554688 839.277344 263.410156 839.203125 C 258.09375 839.671875 252.753906 839.117188 247.515625 838.191406 C 248.378906 838.347656 249.257812 838.5 250.121094 838.65625 C 238.324219 836.554688 226.707031 833.246094 215.3125 829.582031 C 203.601562 825.8125 192.058594 821.511719 180.589844 817.0625 C 177.332031 815.804688 174.070312 814.527344 170.820312 813.246094 C 168.058594 812.160156 165.273438 811.121094 162.589844 809.847656 C 163.386719 810.222656 164.1875 810.609375 164.980469 810.984375 C 162.863281 809.96875 160.8125 808.789062 159.015625 807.261719 C 159.664062 807.816406 160.308594 808.375 160.957031 808.929688 C 159.964844 808.066406 159.074219 807.109375 158.308594 806.035156 C 158.785156 806.730469 159.265625 807.417969 159.742188 808.117188 C 159.101562 807.175781 158.585938 806.175781 158.195312 805.097656 C 158.484375 805.890625 158.769531 806.683594 159.058594 807.472656 C 158.65625 806.328125 158.417969 805.136719 158.300781 803.933594 C 158.375 804.785156 158.457031 805.632812 158.527344 806.484375 C 158.363281 804.445312 158.539062 802.410156 158.898438 800.394531 C 158.742188 801.257812 158.59375 802.136719 158.4375 803 C 158.941406 800.234375 159.769531 797.539062 160.597656 794.847656 C 161.578125 791.683594 162.609375 788.535156 163.691406 785.398438 C 165.871094 779.136719 168.257812 772.949219 170.867188 766.851562 C 172.351562 763.378906 173.910156 759.941406 175.527344 756.527344 C 175.152344 757.324219 174.765625 758.125 174.390625 758.917969 C 177.003906 753.433594 179.785156 748.03125 182.738281 742.714844 C 184.042969 740.378906 184.707031 737.84375 184.113281 735.167969 C 183.59375 732.851562 181.957031 730.277344 179.878906 729.054688 C 177.648438 727.734375 174.910156 726.988281 172.328125 727.679688 C 169.949219 728.351562 167.449219 729.710938 166.207031 731.9375 Z M 166.207031 731.9375 " fill-opacity="1" fill-rule="nonzero"/></g></g></g><g clip-path="url(#5d9454ace6)"><g clip-path="url(#60be7898c6)"><g clip-path="url(#94339cc7aa)"><path fill="#3a5de9" d="M 184.285156 730.984375 C 181.3125 735.46875 178.503906 740.0625 175.867188 744.761719 C 172.800781 750.207031 170.023438 755.785156 167.367188 761.4375 C 165.074219 766.308594 162.953125 771.257812 161.015625 776.285156 C 159.078125 781.304688 157.316406 786.398438 155.746094 791.550781 C 154.171875 796.703125 152.792969 801.910156 151.59375 807.15625 C 151.441406 807.824219 151.296875 808.488281 151.152344 809.15625 C 150.996094 810.023438 150.847656 810.898438 150.691406 811.765625 C 150.589844 813.078125 150.8125 814.324219 151.351562 815.5 C 151.539062 816.335938 151.921875 817.082031 152.496094 817.722656 C 153.136719 818.84375 154.023438 819.75 155.152344 820.429688 C 155.945312 820.804688 156.746094 821.191406 157.542969 821.566406 C 158.40625 821.722656 159.285156 821.875 160.148438 822.03125 C 161.464844 822.132812 162.710938 821.90625 163.882812 821.367188 C 165.125 821.03125 166.210938 820.414062 167.148438 819.503906 C 169.558594 817.21875 171.71875 814.644531 173.730469 812 C 175.269531 809.980469 176.683594 807.875 178.0625 805.753906 C 181.011719 801.238281 183.921875 796.707031 186.851562 792.175781 C 192.769531 783.019531 198.699219 773.863281 204.621094 764.703125 C 207.972656 759.527344 211.320312 754.347656 214.671875 749.167969 C 208.78125 746.367188 202.902344 743.558594 197.011719 740.757812 C 195.058594 746.402344 193.09375 752.050781 191.140625 757.695312 C 189.167969 763.367188 187.207031 769.035156 185.234375 774.707031 C 183.28125 780.351562 181.316406 786 179.359375 791.644531 C 178.65625 793.6875 177.984375 795.753906 177.425781 797.847656 C 177.152344 798.898438 176.898438 799.949219 176.6875 801.011719 C 176.316406 802.90625 175.949219 804.808594 175.746094 806.730469 C 175.640625 807.765625 175.574219 808.808594 175.585938 809.855469 C 175.585938 810.367188 175.613281 810.875 175.648438 811.386719 C 175.753906 812.699219 175.839844 814.023438 176.035156 815.328125 C 176.1875 816.335938 176.421875 817.328125 176.761719 818.289062 C 177.355469 819.992188 177.921875 821.734375 178.835938 823.296875 C 179.511719 824.429688 180.285156 825.515625 181.058594 826.574219 C 182.25 827.898438 183.699219 828.828125 185.394531 829.378906 C 187.097656 829.917969 188.808594 829.996094 190.554688 829.613281 C 194.003906 828.847656 196.664062 826.304688 197.804688 822.992188 C 200.433594 815.371094 203.390625 807.863281 206.671875 800.5 C 207.601562 798.414062 208.558594 796.339844 209.539062 794.277344 C 209.164062 795.070312 208.777344 795.871094 208.402344 796.667969 C 211.308594 790.550781 214.4375 784.53125 217.78125 778.644531 C 221.128906 772.753906 224.683594 766.984375 228.449219 761.351562 C 230.582031 758.164062 232.773438 755.023438 235.035156 751.921875 C 235.828125 750.792969 236.28125 749.566406 236.402344 748.222656 C 236.746094 746.953125 236.742188 745.671875 236.40625 744.375 C 236.117188 743.582031 235.835938 742.792969 235.542969 742 C 234.984375 740.808594 234.191406 739.835938 233.144531 739.089844 C 232.542969 738.429688 231.820312 737.957031 230.976562 737.6875 C 229.8125 737.003906 228.550781 736.660156 227.171875 736.648438 C 226.320312 736.722656 225.472656 736.804688 224.621094 736.875 C 222.941406 737.261719 221.453125 738.023438 220.164062 739.171875 C 213.136719 747.136719 206.121094 755.109375 199.09375 763.082031 C 192.128906 771 185.144531 778.925781 178.148438 786.851562 C 174.21875 791.308594 170.292969 795.769531 166.363281 800.226562 C 165.328125 801.085938 164.585938 802.128906 164.132812 803.363281 C 163.449219 804.527344 163.105469 805.789062 163.09375 807.167969 C 163.167969 808.019531 163.25 808.867188 163.320312 809.71875 C 163.707031 811.398438 164.46875 812.886719 165.617188 814.175781 C 167.09375 815.902344 168.847656 817.386719 170.609375 818.816406 C 171.746094 819.742188 172.96875 820.554688 174.253906 821.261719 C 175.644531 822.015625 177.082031 822.683594 178.523438 823.328125 C 179.183594 823.617188 179.859375 823.882812 180.542969 824.113281 C 182.726562 824.855469 185.011719 825.242188 187.289062 825.597656 C 188.941406 825.851562 190.609375 825.9375 192.28125 825.839844 C 193.59375 825.941406 194.839844 825.71875 196.015625 825.179688 C 197.253906 824.84375 198.339844 824.226562 199.28125 823.316406 C 200.316406 822.457031 201.054688 821.414062 201.511719 820.179688 C 202.195312 819.015625 202.539062 817.753906 202.546875 816.375 C 202.476562 815.523438 202.394531 814.675781 202.320312 813.824219 C 201.933594 812.144531 201.175781 810.65625 200.023438 809.367188 C 199.375 808.8125 198.734375 808.253906 198.082031 807.699219 C 196.554688 806.71875 194.894531 806.1875 193.082031 806.097656 C 191.234375 806.207031 189.382812 806.085938 187.558594 805.769531 C 188.421875 805.925781 189.300781 806.078125 190.164062 806.234375 C 187.984375 805.839844 185.871094 805.152344 183.871094 804.203125 C 184.667969 804.578125 185.46875 804.964844 186.261719 805.339844 C 184.347656 804.414062 182.558594 803.261719 180.941406 801.890625 C 181.59375 802.445312 182.234375 803.003906 182.886719 803.558594 C 181.957031 802.761719 181.101562 801.90625 180.300781 800.976562 C 180.058594 805.625 179.804688 810.273438 179.558594 814.917969 C 186.582031 806.953125 193.601562 798.984375 200.628906 791.007812 C 207.613281 783.082031 214.597656 775.15625 221.585938 767.226562 C 225.515625 762.769531 229.441406 758.308594 233.371094 753.851562 C 228.421875 749.597656 223.46875 745.351562 218.515625 741.105469 C 215.328125 745.472656 212.261719 749.933594 209.335938 754.488281 C 206.394531 759.054688 203.582031 763.714844 200.910156 768.449219 C 198.25 773.160156 195.726562 777.945312 193.347656 782.804688 C 190.589844 788.433594 187.957031 794.121094 185.527344 799.894531 C 183.429688 804.882812 181.476562 809.929688 179.679688 815.027344 C 179.457031 815.671875 179.222656 816.316406 179.007812 816.964844 C 184.589844 815.769531 190.171875 814.570312 195.753906 813.378906 C 195.664062 813.253906 195.574219 813.128906 195.484375 813 C 195.960938 813.695312 196.441406 814.382812 196.917969 815.082031 C 196.21875 814.054688 195.65625 812.949219 195.234375 811.789062 C 195.523438 812.578125 195.808594 813.371094 196.097656 814.160156 C 195.597656 812.757812 195.304688 811.300781 195.167969 809.8125 C 195.238281 810.667969 195.320312 811.511719 195.394531 812.367188 C 195.195312 809.96875 195.394531 807.5625 195.808594 805.191406 C 195.652344 806.058594 195.503906 806.933594 195.347656 807.796875 C 195.917969 804.613281 196.851562 801.503906 197.894531 798.433594 C 199.300781 794.316406 200.742188 790.21875 202.171875 786.105469 C 205.078125 777.726562 207.984375 769.347656 210.890625 760.980469 C 212.535156 756.246094 214.171875 751.511719 215.820312 746.769531 C 216.28125 745.492188 216.402344 744.203125 216.171875 742.894531 C 216.171875 741.605469 215.84375 740.386719 215.199219 739.25 C 214.722656 738.550781 214.242188 737.863281 213.765625 737.167969 C 212.90625 736.132812 211.863281 735.390625 210.628906 734.9375 C 209.871094 734.441406 209.035156 734.175781 208.128906 734.136719 C 206.859375 733.789062 205.582031 733.792969 204.28125 734.128906 C 203.488281 734.417969 202.699219 734.703125 201.90625 734.992188 C 200.363281 735.792969 199.113281 736.914062 198.15625 738.367188 C 192.53125 747.058594 186.90625 755.757812 181.289062 764.453125 C 175.695312 773.101562 170.101562 781.753906 164.507812 790.402344 C 161.578125 794.9375 158.734375 799.582031 155.21875 803.6875 C 155.773438 803.035156 156.332031 802.394531 156.886719 801.746094 C 155.964844 802.8125 154.996094 803.851562 153.964844 804.824219 C 159.292969 808.273438 164.628906 811.730469 169.960938 815.179688 C 171.378906 808.664062 173.09375 802.210938 175.089844 795.84375 C 177.074219 789.503906 179.351562 783.253906 181.898438 777.117188 C 183.335938 773.648438 184.867188 770.21875 186.472656 766.820312 C 186.097656 767.617188 185.710938 768.417969 185.335938 769.210938 C 188.851562 761.816406 192.773438 754.609375 197.082031 747.636719 C 198.296875 745.667969 199.542969 743.726562 200.816406 741.792969 C 201.609375 740.667969 202.0625 739.4375 202.183594 738.09375 C 202.527344 736.824219 202.523438 735.542969 202.1875 734.246094 C 201.953125 732.960938 201.425781 731.824219 200.613281 730.832031 C 199.972656 729.710938 199.085938 728.804688 197.957031 728.125 C 197.160156 727.746094 196.363281 727.363281 195.566406 726.988281 C 193.863281 726.449219 192.15625 726.367188 190.410156 726.75 C 189.617188 727.042969 188.824219 727.324219 188.035156 727.613281 C 186.492188 728.40625 185.246094 729.527344 184.285156 730.984375 Z M 184.285156 730.984375 " fill-opacity="1" fill-rule="nonzero"/></g></g></g><g clip-path="url(#a7586c2abd)"><g clip-path="url(#7c1cfd2300)"><g clip-path="url(#0cec1d7bb1)"><path fill="#3a5de9" d="M 231.085938 741.355469 C 228.035156 746.726562 225.097656 752.160156 222.265625 757.652344 C 219.046875 763.902344 215.988281 770.226562 213.023438 776.601562 C 210.417969 782.199219 207.933594 787.855469 205.554688 793.554688 C 203.167969 799.285156 200.902344 805.0625 198.753906 810.882812 C 197.683594 813.796875 196.636719 816.71875 195.625 819.652344 C 195.378906 820.375 195.125 821.105469 194.878906 821.828125 C 194.433594 823.136719 194.226562 824.511719 194.039062 825.878906 C 193.96875 826.390625 193.953125 826.902344 193.980469 827.414062 C 194.054688 828.664062 194.070312 830.042969 194.457031 831.261719 C 194.722656 832.097656 195.042969 833.019531 195.394531 833.832031 C 195.433594 833.925781 195.472656 834.023438 195.523438 834.109375 C 195.753906 834.542969 196.109375 834.996094 196.363281 835.363281 C 196.570312 835.660156 196.945312 836.300781 197.28125 836.65625 C 197.609375 837.003906 198.136719 837.40625 198.414062 837.640625 C 198.8125 837.984375 199.144531 838.324219 199.566406 838.597656 C 199.605469 838.617188 199.640625 838.640625 199.6875 838.664062 C 199.957031 838.816406 201.835938 839.714844 202.117188 839.8125 C 202.21875 839.84375 202.3125 839.875 202.414062 839.898438 C 202.757812 839.992188 204.726562 840.335938 205.070312 840.371094 C 205.121094 840.378906 205.164062 840.382812 205.210938 840.390625 C 206.09375 840.421875 207.089844 840.265625 207.953125 840.160156 C 208.058594 840.152344 208.160156 840.132812 208.269531 840.117188 C 208.6875 840.023438 209.507812 839.683594 209.585938 839.648438 C 209.945312 839.519531 210.523438 839.335938 210.957031 839.144531 C 211.417969 838.9375 211.949219 838.503906 212.28125 838.265625 C 212.671875 838 213.195312 837.683594 213.589844 837.34375 C 213.695312 837.257812 213.785156 837.160156 213.878906 837.058594 C 214.527344 836.351562 215.179688 835.609375 215.769531 834.847656 C 216.679688 833.679688 217.445312 832.390625 218.273438 831.160156 C 219.164062 829.828125 220.054688 828.5 220.945312 827.179688 C 224.460938 821.949219 227.972656 816.71875 231.492188 811.480469 C 235.023438 806.21875 238.554688 800.960938 242.085938 795.703125 C 245.601562 790.472656 249.117188 785.242188 252.632812 780 C 256.164062 774.742188 259.699219 769.484375 263.230469 764.222656 C 264.085938 762.953125 264.945312 761.671875 265.800781 760.402344 C 259.910156 757.597656 254.03125 754.792969 248.140625 751.992188 C 243.597656 763.152344 239.058594 774.308594 234.886719 785.613281 C 230.746094 796.835938 226.972656 808.195312 223.949219 819.773438 C 222.042969 827.074219 220.515625 834.433594 219.222656 841.863281 C 219.296875 842.714844 219.378906 843.5625 219.453125 844.414062 C 219.6875 845.699219 220.214844 846.832031 221.027344 847.828125 C 221.429688 848.59375 221.988281 849.222656 222.714844 849.699219 C 223.648438 850.644531 224.765625 851.304688 226.074219 851.664062 C 226.941406 851.820312 227.816406 851.972656 228.683594 852.128906 C 229.535156 852.054688 230.382812 851.972656 231.234375 851.898438 C 232.519531 851.664062 233.652344 851.136719 234.648438 850.324219 C 235.769531 849.679688 236.675781 848.796875 237.355469 847.667969 C 242.585938 837.832031 247.816406 827.996094 253.050781 818.160156 C 255.652344 813.265625 258.253906 808.382812 260.847656 803.488281 C 263.109375 799.230469 265.371094 794.96875 267.839844 790.820312 C 270.585938 786.207031 273.582031 781.726562 277.085938 777.640625 C 276.53125 778.292969 275.972656 778.933594 275.417969 779.585938 C 277.890625 776.714844 280.609375 774.054688 283.605469 771.734375 C 278.277344 768.28125 272.941406 764.828125 267.613281 761.378906 C 264.152344 771.1875 260.699219 780.996094 257.238281 790.804688 C 253.800781 800.546875 250.367188 810.304688 246.933594 820.050781 C 246.058594 822.535156 245.179688 825.015625 244.308594 827.492188 C 243.261719 830.464844 241.996094 833.472656 241.878906 836.671875 C 241.828125 837.960938 241.890625 839.308594 242.246094 840.546875 C 242.945312 842.964844 243.535156 844.042969 245.039062 846.027344 C 245.78125 847.007812 246.792969 847.8125 247.792969 848.488281 C 249.710938 849.777344 251.464844 850.15625 253.679688 850.46875 C 254.878906 850.636719 256.164062 850.496094 257.320312 850.148438 C 259.308594 849.550781 261.238281 848.726562 262.726562 847.207031 C 263.433594 846.484375 264.128906 845.664062 264.742188 844.855469 C 264.878906 844.675781 265 844.480469 265.121094 844.289062 C 265.417969 843.804688 265.660156 843.285156 265.910156 842.777344 C 270.539062 833.542969 275.175781 824.300781 279.808594 815.070312 C 284.46875 805.773438 289.136719 796.484375 293.796875 787.191406 C 294.359375 786.074219 294.917969 784.949219 295.484375 783.835938 C 289.445312 781.902344 283.398438 779.964844 277.359375 778.03125 C 277.039062 781.160156 276.59375 784.273438 276.042969 787.367188 C 276.199219 786.503906 276.351562 785.628906 276.507812 784.761719 C 275.375 791.074219 273.804688 797.300781 271.96875 803.4375 C 270.121094 809.609375 268.007812 815.695312 265.804688 821.742188 C 264.554688 825.167969 263.28125 828.578125 262 831.984375 C 261.539062 833.261719 261.417969 834.550781 261.648438 835.859375 C 261.648438 837.148438 261.976562 838.367188 262.621094 839.503906 C 263.179688 840.695312 263.976562 841.667969 265.023438 842.417969 C 265.953125 843.363281 267.074219 844.023438 268.382812 844.382812 C 269.25 844.539062 270.125 844.6875 270.988281 844.84375 C 272.722656 844.90625 274.367188 844.546875 275.914062 843.753906 C 276.613281 843.277344 277.300781 842.796875 277.996094 842.324219 C 279.320312 841.132812 280.25 839.683594 280.800781 837.988281 C 283.511719 830.761719 286.214844 823.535156 288.628906 816.210938 C 291.027344 808.9375 293.148438 801.558594 294.679688 794.054688 C 295.707031 789.019531 296.566406 783.929688 297.089844 778.8125 C 297.019531 777.960938 296.933594 777.113281 296.863281 776.261719 C 296.625 774.976562 296.101562 773.84375 295.289062 772.847656 C 294.886719 772.082031 294.328125 771.453125 293.597656 770.976562 C 292.667969 770.03125 291.546875 769.371094 290.238281 769.011719 C 289.371094 768.855469 288.496094 768.703125 287.632812 768.546875 C 286.777344 768.621094 285.933594 768.703125 285.078125 768.777344 C 283.796875 769.011719 282.660156 769.539062 281.664062 770.351562 C 280.542969 770.996094 279.640625 771.878906 278.957031 773.007812 C 274.917969 781.066406 270.867188 789.132812 266.828125 797.191406 C 262.789062 805.25 258.738281 813.3125 254.695312 821.371094 C 253.574219 823.613281 252.449219 825.851562 251.328125 828.089844 C 250.753906 829.238281 250.179688 830.382812 249.601562 831.535156 C 249.144531 832.460938 248.71875 833.4375 248.054688 834.246094 C 248.605469 833.59375 249.167969 832.953125 249.722656 832.300781 C 249.542969 832.503906 249.359375 832.675781 249.152344 832.835938 C 249.847656 832.359375 250.539062 831.878906 251.234375 831.402344 C 251.054688 831.527344 250.871094 831.625 250.671875 831.707031 C 251.464844 831.417969 252.253906 831.132812 253.046875 830.84375 C 252.882812 830.894531 252.722656 830.9375 252.550781 830.960938 C 253.402344 830.886719 254.25 830.804688 255.101562 830.734375 C 254.898438 830.746094 254.703125 830.734375 254.507812 830.707031 C 255.371094 830.863281 256.246094 831.011719 257.113281 831.167969 C 256.910156 831.121094 256.730469 831.066406 256.542969 830.980469 C 257.339844 831.355469 258.140625 831.738281 258.933594 832.117188 C 258.710938 832 258.511719 831.867188 258.324219 831.703125 C 258.972656 832.257812 259.617188 832.816406 260.265625 833.371094 C 260.046875 833.171875 259.859375 832.949219 259.679688 832.699219 C 260.15625 833.398438 260.636719 834.085938 261.109375 834.78125 C 260.972656 834.566406 260.855469 834.335938 260.761719 834.097656 C 261.050781 834.890625 261.332031 835.683594 261.621094 836.472656 C 261.515625 836.164062 261.453125 835.847656 261.417969 835.527344 C 261.488281 836.378906 261.570312 837.226562 261.644531 838.078125 C 261.605469 837.554688 261.648438 837.042969 261.734375 836.527344 C 261.578125 837.394531 261.429688 838.269531 261.273438 839.132812 C 261.492188 838.046875 261.882812 837.007812 262.25 835.96875 C 262.664062 834.785156 263.085938 833.601562 263.5 832.421875 C 264.335938 830.054688 265.167969 827.695312 266.003906 825.328125 C 267.648438 820.65625 269.296875 815.996094 270.9375 811.320312 C 274.25 801.925781 277.558594 792.535156 280.878906 783.140625 C 282.734375 777.878906 284.582031 772.625 286.4375 767.363281 C 286.59375 766.5 286.746094 765.621094 286.902344 764.757812 C 287.003906 763.441406 286.78125 762.195312 286.242188 761.023438 C 286.050781 760.183594 285.667969 759.441406 285.097656 758.800781 C 284.453125 757.679688 283.570312 756.773438 282.441406 756.089844 C 281.644531 755.714844 280.84375 755.332031 280.050781 754.953125 C 279.183594 754.796875 278.308594 754.648438 277.441406 754.492188 C 276.128906 754.390625 274.882812 754.613281 273.707031 755.152344 C 272.46875 755.488281 271.382812 756.109375 270.441406 757.015625 C 268.269531 758.703125 266.234375 760.558594 264.339844 762.558594 C 261.902344 765.128906 259.605469 767.855469 257.488281 770.691406 C 254.175781 775.125 251.324219 779.886719 248.636719 784.714844 C 245.71875 789.972656 242.9375 795.308594 240.117188 800.613281 C 237.09375 806.304688 234.0625 812 231.039062 817.691406 C 228.023438 823.359375 225.019531 829.019531 222.003906 834.6875 C 221.621094 835.402344 221.242188 836.125 220.855469 836.839844 C 226.894531 838.773438 232.941406 840.710938 238.980469 842.644531 C 239.035156 842.34375 239.089844 842.039062 239.144531 841.738281 C 238.988281 842.601562 238.835938 843.476562 238.679688 844.34375 C 240.757812 832.703125 243.785156 821.246094 247.375 809.984375 C 250.976562 798.6875 255.136719 787.582031 259.488281 776.550781 C 261.941406 770.347656 264.457031 764.167969 266.972656 757.988281 C 267.433594 756.710938 267.550781 755.417969 267.324219 754.109375 C 267.320312 752.820312 266.996094 751.601562 266.347656 750.464844 C 265.871094 749.765625 265.394531 749.078125 264.917969 748.382812 C 264.058594 747.347656 263.015625 746.605469 261.78125 746.152344 C 261.023438 745.65625 260.183594 745.390625 259.28125 745.351562 C 258.011719 745.003906 256.730469 745.007812 255.433594 745.34375 C 254.640625 745.636719 253.851562 745.917969 253.058594 746.207031 C 251.515625 747.007812 250.265625 748.128906 249.308594 749.582031 C 242.738281 759.371094 236.15625 769.15625 229.582031 778.953125 C 223.046875 788.6875 216.5 798.421875 209.960938 808.160156 C 208.144531 810.871094 206.328125 813.578125 204.503906 816.285156 C 203.59375 817.632812 202.6875 818.992188 201.777344 820.34375 C 200.90625 821.636719 200.109375 823.046875 199.105469 824.246094 C 199.65625 823.59375 200.21875 822.953125 200.773438 822.300781 C 200.585938 822.507812 200.398438 822.6875 200.171875 822.851562 C 200.867188 822.375 201.558594 821.894531 202.253906 821.417969 C 202.101562 821.515625 201.949219 821.589844 201.78125 821.65625 C 202.574219 821.367188 203.363281 821.082031 204.15625 820.792969 C 204.003906 820.832031 203.867188 820.863281 203.714844 820.875 C 204.566406 820.804688 205.414062 820.71875 206.265625 820.648438 C 206.136719 820.648438 206.015625 820.644531 205.882812 820.628906 C 206.75 820.785156 207.625 820.9375 208.488281 821.09375 C 208.371094 821.0625 208.261719 821.027344 208.152344 820.984375 C 208.949219 821.359375 209.75 821.746094 210.542969 822.121094 C 210.4375 822.070312 210.339844 822.003906 210.25 821.933594 C 210.902344 822.488281 211.542969 823.046875 212.195312 823.601562 C 212.054688 823.476562 211.941406 823.34375 211.824219 823.1875 C 212.300781 823.886719 212.78125 824.574219 213.257812 825.269531 C 213.125 825.0625 213.027344 824.859375 212.941406 824.632812 C 213.234375 825.425781 213.515625 826.214844 213.804688 827.007812 C 213.667969 826.609375 213.589844 826.199219 213.542969 825.777344 C 213.617188 826.628906 213.699219 827.476562 213.773438 828.328125 C 213.722656 827.707031 213.753906 827.09375 213.851562 826.488281 C 213.695312 827.355469 213.546875 828.230469 213.390625 829.09375 C 213.519531 828.394531 213.777344 827.726562 214 827.054688 C 214.285156 826.210938 214.582031 825.367188 214.871094 824.527344 C 215.441406 822.871094 216.03125 821.21875 216.628906 819.570312 C 217.828125 816.25 219.074219 812.933594 220.351562 809.648438 C 222.910156 803.058594 225.621094 796.535156 228.484375 790.066406 C 230.105469 786.414062 231.765625 782.785156 233.484375 779.171875 C 233.109375 779.96875 232.722656 780.769531 232.347656 781.5625 C 236.046875 773.792969 239.953125 766.121094 244.078125 758.574219 C 245.261719 756.421875 246.457031 754.277344 247.671875 752.132812 C 248.464844 751.007812 248.917969 749.777344 249.035156 748.433594 C 249.382812 747.164062 249.378906 745.882812 249.042969 744.585938 C 248.804688 743.300781 248.28125 742.164062 247.46875 741.171875 C 246.824219 740.050781 245.941406 739.144531 244.8125 738.464844 C 244.015625 738.089844 243.214844 737.703125 242.421875 737.328125 C 240.71875 736.789062 239.007812 736.707031 237.261719 737.089844 C 236.46875 737.382812 235.679688 737.664062 234.886719 737.953125 C 233.292969 738.78125 232.042969 739.902344 231.085938 741.355469 Z M 231.085938 741.355469 " fill-opacity="1" fill-rule="nonzero"/></g></g></g><g clip-path="url(#315efc58cf)"><g clip-path="url(#6dfb91c9e2)"><g clip-path="url(#90fd1f2f33)"><path fill="#3a5de9" d="M 210.695312 816.175781 C 210.613281 816.480469 210.546875 816.777344 210.492188 817.078125 C 210.277344 818.210938 210.042969 819.34375 209.902344 820.484375 C 209.828125 821.089844 209.804688 821.710938 209.832031 822.324219 C 209.894531 824.3125 210.054688 826.421875 210.640625 828.34375 C 211.226562 830.242188 211.90625 832.21875 212.953125 833.929688 C 213.699219 835.136719 214.503906 836.324219 215.382812 837.429688 C 215.773438 837.90625 216.191406 838.359375 216.644531 838.78125 C 217.730469 839.804688 218.871094 840.832031 220.113281 841.671875 C 221.382812 842.535156 222.832031 843.128906 224.214844 843.769531 C 225.492188 844.230469 226.785156 844.351562 228.09375 844.125 C 229.382812 844.121094 230.597656 843.792969 231.738281 843.148438 C 232.929688 842.589844 233.898438 841.792969 234.648438 840.746094 C 235.59375 839.816406 236.257812 838.695312 236.613281 837.386719 C 236.769531 836.523438 236.921875 835.644531 237.078125 834.78125 C 237.140625 833.046875 236.777344 831.402344 235.988281 829.855469 C 235.511719 829.15625 235.03125 828.46875 234.554688 827.773438 C 233.363281 826.449219 231.917969 825.519531 230.21875 824.96875 C 230.152344 824.9375 230.078125 824.90625 230.011719 824.867188 C 230.804688 825.242188 231.605469 825.628906 232.402344 826.003906 C 231.460938 825.546875 230.589844 824.972656 229.796875 824.296875 C 230.449219 824.851562 231.089844 825.410156 231.742188 825.964844 C 230.859375 825.207031 230.09375 824.339844 229.433594 823.386719 C 229.90625 824.082031 230.386719 824.769531 230.863281 825.46875 C 230.1875 824.472656 229.640625 823.402344 229.234375 822.277344 C 229.523438 823.070312 229.804688 823.859375 230.097656 824.652344 C 229.710938 823.5625 229.453125 822.425781 229.347656 821.269531 C 229.421875 822.121094 229.503906 822.96875 229.578125 823.820312 C 229.488281 822.746094 229.535156 821.664062 229.710938 820.597656 C 229.554688 821.464844 229.402344 822.339844 229.246094 823.207031 C 229.3125 822.863281 229.386719 822.523438 229.476562 822.191406 C 229.9375 820.914062 230.058594 819.621094 229.828125 818.3125 C 229.828125 817.027344 229.5 815.808594 228.855469 814.667969 C 228.292969 813.480469 227.5 812.507812 226.453125 811.757812 C 225.523438 810.8125 224.402344 810.152344 223.09375 809.792969 C 222.226562 809.636719 221.351562 809.484375 220.488281 809.328125 C 218.753906 809.265625 217.109375 809.628906 215.558594 810.421875 C 214.863281 810.898438 214.175781 811.375 213.476562 811.851562 C 212.183594 813.042969 211.246094 814.488281 210.695312 816.175781 Z M 210.695312 816.175781 " fill-opacity="1" fill-rule="nonzero"/></g></g></g></svg>